<svg width="1280" height="122" viewBox="0 0 1280 122" fill="none" xmlns="http://www.w3.org/2000/svg">
  <g clip-path="url(#clip0_30_1216)">
    <path d="M177.958 59.2734V61.1133H168.724V59.2734H177.958ZM169.076 51.9375V69H166.814V51.9375H169.076ZM179.927 51.9375V69H177.677V51.9375H179.927ZM183.044 62.8008V62.5312C183.044 61.6172 183.177 60.7695 183.443 59.9883C183.708 59.1992 184.091 58.5156 184.591 57.9375C185.091 57.3515 185.697 56.8984 186.408 56.5781C187.118 56.25 187.915 56.0859 188.798 56.0859C189.689 56.0859 190.49 56.25 191.201 56.5781C191.919 56.8984 192.529 57.3515 193.029 57.9375C193.536 58.5156 193.923 59.1992 194.189 59.9883C194.454 60.7695 194.587 61.6172 194.587 62.5312V62.8008C194.587 63.7148 194.454 64.5625 194.189 65.3437C193.923 66.125 193.536 66.8086 193.029 67.3945C192.529 67.9726 191.923 68.4258 191.212 68.7539C190.509 69.0742 189.712 69.2343 188.822 69.2343C187.931 69.2343 187.13 69.0742 186.419 68.7539C185.708 68.4258 185.099 67.9726 184.591 67.3945C184.091 66.8086 183.708 66.125 183.443 65.3437C183.177 64.5625 183.044 63.7148 183.044 62.8008ZM185.212 62.5312V62.8008C185.212 63.4336 185.286 64.0312 185.435 64.5937C185.583 65.1484 185.806 65.6406 186.103 66.0703C186.408 66.5 186.786 66.8398 187.24 67.0898C187.693 67.332 188.22 67.4531 188.822 67.4531C189.415 67.4531 189.935 67.332 190.38 67.0898C190.833 66.8398 191.208 66.5 191.505 66.0703C191.802 65.6406 192.025 65.1484 192.173 64.5937C192.329 64.0312 192.408 63.4336 192.408 62.8008V62.5312C192.408 61.9062 192.329 61.3164 192.173 60.7617C192.025 60.1992 191.798 59.7031 191.493 59.2734C191.197 58.8359 190.822 58.4922 190.368 58.2422C189.923 57.9922 189.4 57.8672 188.798 57.8672C188.204 57.8672 187.681 57.9922 187.228 58.2422C186.783 58.4922 186.408 58.8359 186.103 59.2734C185.806 59.7031 185.583 60.1992 185.435 60.7617C185.286 61.3164 185.212 61.9062 185.212 62.5312ZM199.462 58.8398V69H197.283V56.3203H199.345L199.462 58.8398ZM199.017 62.1797L198.009 62.1445C198.017 61.2773 198.13 60.4765 198.349 59.7422C198.568 59 198.892 58.3554 199.322 57.8086C199.751 57.2617 200.286 56.8398 200.927 56.5429C201.568 56.2383 202.31 56.0859 203.154 56.0859C203.747 56.0859 204.294 56.1718 204.794 56.3437C205.294 56.5078 205.728 56.7695 206.095 57.1289C206.462 57.4883 206.747 57.9492 206.951 58.5117C207.154 59.0742 207.255 59.7539 207.255 60.5508V69H205.087V60.6562C205.087 59.9922 204.974 59.4609 204.747 59.0625C204.529 58.664 204.216 58.375 203.81 58.1953C203.404 58.0078 202.927 57.914 202.38 57.914C201.74 57.914 201.204 58.0273 200.775 58.2539C200.345 58.4804 200.001 58.7929 199.743 59.1914C199.486 59.5898 199.298 60.0468 199.181 60.5625C199.072 61.0703 199.017 61.6093 199.017 62.1797ZM207.232 60.9843L205.779 61.4297C205.786 60.7343 205.9 60.0664 206.118 59.4258C206.345 58.7851 206.669 58.2148 207.091 57.7148C207.521 57.2148 208.048 56.8203 208.673 56.5312C209.298 56.2343 210.013 56.0859 210.818 56.0859C211.497 56.0859 212.099 56.1758 212.622 56.3554C213.154 56.5351 213.599 56.8125 213.958 57.1875C214.326 57.5547 214.603 58.0273 214.79 58.6054C214.978 59.1836 215.072 59.8711 215.072 60.6679V69H212.892V60.6445C212.892 59.9336 212.779 59.3828 212.552 58.9922C212.333 58.5937 212.021 58.3164 211.615 58.1601C211.216 57.9961 210.74 57.914 210.185 57.914C209.708 57.914 209.286 57.9961 208.919 58.1601C208.552 58.3242 208.243 58.5508 207.993 58.8398C207.743 59.1211 207.552 59.4453 207.419 59.8125C207.294 60.1797 207.232 60.5703 207.232 60.9843ZM223.615 69.2343C222.732 69.2343 221.931 69.0859 221.212 68.789C220.501 68.4843 219.888 68.0586 219.372 67.5117C218.865 66.9648 218.474 66.3164 218.201 65.5664C217.927 64.8164 217.79 63.9961 217.79 63.1054V62.6133C217.79 61.582 217.943 60.664 218.247 59.8593C218.552 59.0468 218.966 58.3593 219.49 57.7968C220.013 57.2343 220.607 56.8086 221.271 56.5195C221.935 56.2304 222.622 56.0859 223.333 56.0859C224.24 56.0859 225.021 56.2422 225.677 56.5547C226.341 56.8672 226.884 57.3047 227.306 57.8672C227.728 58.4218 228.04 59.0781 228.243 59.8359C228.447 60.5859 228.548 61.4062 228.548 62.2968V63.2695H219.079V61.5H226.38V61.3359C226.349 60.7734 226.232 60.2265 226.029 59.6953C225.833 59.164 225.521 58.7265 225.091 58.3828C224.661 58.039 224.076 57.8672 223.333 57.8672C222.841 57.8672 222.388 57.9726 221.974 58.1836C221.56 58.3867 221.204 58.6914 220.908 59.0976C220.611 59.5039 220.38 60 220.216 60.5859C220.052 61.1718 219.97 61.8476 219.97 62.6133V63.1054C219.97 63.707 220.052 64.2734 220.216 64.8047C220.388 65.3281 220.634 65.789 220.954 66.1875C221.283 66.5859 221.677 66.8984 222.138 67.125C222.607 67.3515 223.138 67.4648 223.732 67.4648C224.497 67.4648 225.146 67.3086 225.677 66.9961C226.208 66.6836 226.673 66.2656 227.072 65.7422L228.384 66.7851C228.111 67.1992 227.763 67.5937 227.341 67.9687C226.919 68.3437 226.4 68.6484 225.783 68.8828C225.173 69.1172 224.451 69.2343 223.615 69.2343Z" fill="#8D8D99"/>
    <path d="M297.528 59.9384V60.6684C297.528 61.8392 297.37 62.8901 297.052 63.8211C296.735 64.7521 296.287 65.5455 295.709 66.2015C295.13 66.8503 294.439 67.3476 293.635 67.6932C292.838 68.0388 291.953 68.2116 290.98 68.2116C290.013 68.2116 289.128 68.0388 288.324 67.6932C287.527 67.3476 286.836 66.8503 286.251 66.2015C285.665 65.5455 285.21 64.7521 284.886 63.8211C284.569 62.8901 284.41 61.8392 284.41 60.6684V59.9384C284.41 58.7606 284.569 57.7097 284.886 56.7858C285.203 55.8548 285.651 55.0613 286.229 54.4054C286.815 53.7495 287.506 53.2487 288.303 52.9031C289.107 52.5575 289.992 52.3847 290.958 52.3847C291.932 52.3847 292.817 52.5575 293.614 52.9031C294.418 53.2487 295.109 53.7495 295.688 54.4054C296.273 55.0613 296.724 55.8548 297.042 56.7858C297.366 57.7097 297.528 58.7606 297.528 59.9384ZM294.323 60.6684V59.9173C294.323 59.0991 294.249 58.3797 294.101 57.7591C293.952 57.1384 293.734 56.6165 293.445 56.1933C293.155 55.7702 292.803 55.4528 292.387 55.2412C291.971 55.0225 291.495 54.9132 290.958 54.9132C290.422 54.9132 289.946 55.0225 289.53 55.2412C289.121 55.4528 288.772 55.7702 288.483 56.1933C288.201 56.6165 287.986 57.1384 287.838 57.7591C287.689 58.3797 287.615 59.0991 287.615 59.9173V60.6684C287.615 61.4795 287.689 62.1989 287.838 62.8266C287.986 63.4473 288.204 63.9727 288.493 64.403C288.783 64.8261 289.135 65.1471 289.551 65.3657C289.968 65.5843 290.444 65.6937 290.98 65.6937C291.516 65.6937 291.992 65.5843 292.408 65.3657C292.824 65.1471 293.173 64.8261 293.455 64.403C293.737 63.9727 293.952 63.4473 294.101 62.8266C294.249 62.1989 294.323 61.4795 294.323 60.6684ZM313.715 52.5963H316.878V62.7737C316.878 63.9586 316.624 64.9566 316.116 65.7677C315.616 66.5788 314.921 67.1889 314.032 67.598C313.151 68.007 312.135 68.2116 310.985 68.2116C309.836 68.2116 308.813 68.007 307.917 67.598C307.029 67.1889 306.33 66.5788 305.823 65.7677C305.322 64.9566 305.071 63.9586 305.071 62.7737V52.5963H308.245V62.7737C308.245 63.4649 308.355 64.0292 308.573 64.4664C308.792 64.9037 309.106 65.2246 309.515 65.4292C309.931 65.6337 310.421 65.736 310.985 65.736C311.564 65.736 312.054 65.6337 312.456 65.4292C312.865 65.2246 313.175 64.9037 313.387 64.4664C313.606 64.0292 313.715 63.4649 313.715 62.7737V52.5963ZM322.284 58.9969V68H319.237V56.553H322.094L322.284 58.9969ZM321.84 61.8745H321.015C321.015 61.0281 321.124 60.2664 321.343 59.5893C321.561 58.9052 321.868 58.3233 322.263 57.8437C322.658 57.3571 323.127 56.9868 323.67 56.7329C324.22 56.4719 324.834 56.3414 325.511 56.3414C326.047 56.3414 326.537 56.419 326.981 56.5742C327.426 56.7294 327.807 56.9762 328.124 57.3147C328.448 57.6533 328.695 58.1012 328.865 58.6583C329.041 59.2155 329.129 59.8961 329.129 60.7002V68H326.061V60.6896C326.061 60.1818 325.991 59.7868 325.849 59.5047C325.708 59.2226 325.5 59.0251 325.225 58.9122C324.957 58.7923 324.626 58.7324 324.231 58.7324C323.822 58.7324 323.466 58.8135 323.162 58.9757C322.866 59.1379 322.619 59.3636 322.422 59.6528C322.231 59.9349 322.087 60.2664 321.988 60.6473C321.889 61.0281 321.84 61.4372 321.84 61.8745ZM334.662 56.553V68H331.605V56.553H334.662ZM331.414 53.5696C331.414 53.1253 331.569 52.7585 331.88 52.4694C332.19 52.1802 332.606 52.0356 333.128 52.0356C333.643 52.0356 334.056 52.1802 334.366 52.4694C334.683 52.7585 334.842 53.1253 334.842 53.5696C334.842 54.014 334.683 54.3807 334.366 54.6699C334.056 54.9591 333.643 55.1036 333.128 55.1036C332.606 55.1036 332.19 54.9591 331.88 54.6699C331.569 54.3807 331.414 54.014 331.414 53.5696ZM341.073 65.7783L343.612 56.553H346.797L342.935 68H341.01L341.073 65.7783ZM339.328 56.553L341.877 65.7889L341.93 68H339.994L336.133 56.553H339.328ZM353.282 68.2116C352.393 68.2116 351.596 68.0705 350.891 67.7884C350.186 67.4992 349.586 67.1007 349.092 66.5929C348.606 66.0851 348.232 65.4962 347.971 64.8261C347.71 64.1491 347.58 63.4297 347.58 62.6679V62.2448C347.58 61.3772 347.703 60.5838 347.95 59.8644C348.197 59.145 348.549 58.5208 349.008 57.9918C349.473 57.4629 350.038 57.0573 350.701 56.7752C351.364 56.486 352.111 56.3414 352.943 56.3414C353.754 56.3414 354.474 56.4754 355.102 56.7435C355.729 57.0115 356.255 57.3923 356.678 57.886C357.108 58.3797 357.433 58.9722 357.651 59.6634C357.87 60.3475 357.979 61.1092 357.979 61.9485V63.2181H348.881V61.1868H354.985V60.9541C354.985 60.5309 354.908 60.1536 354.752 59.8221C354.604 59.4835 354.379 59.2155 354.075 59.018C353.772 58.8206 353.384 58.7218 352.912 58.7218C352.51 58.7218 352.164 58.81 351.875 58.9863C351.586 59.1626 351.349 59.4095 351.166 59.7269C350.99 60.0442 350.856 60.418 350.764 60.8483C350.679 61.2715 350.637 61.7369 350.637 62.2448V62.6679C350.637 63.1264 350.701 63.5496 350.827 63.9375C350.961 64.3254 351.148 64.6604 351.388 64.9425C351.635 65.2246 351.931 65.4433 352.277 65.5984C352.63 65.7536 353.028 65.8312 353.472 65.8312C354.022 65.8312 354.534 65.7254 355.006 65.5138C355.486 65.2952 355.899 64.9672 356.244 64.5299L357.725 66.138C357.485 66.4836 357.158 66.8151 356.741 67.1325C356.332 67.4498 355.839 67.7108 355.26 67.9153C354.682 68.1128 354.022 68.2116 353.282 68.2116ZM362.761 59.0498V68H359.714V56.553H362.581L362.761 59.0498ZM366.21 56.479L366.157 59.3037C366.009 59.2825 365.829 59.2649 365.618 59.2508C365.413 59.2296 365.226 59.219 365.057 59.219C364.627 59.219 364.253 59.2755 363.935 59.3883C363.625 59.4941 363.364 59.6528 363.153 59.8644C362.948 60.076 362.793 60.3334 362.687 60.6367C362.588 60.94 362.532 61.2856 362.518 61.6735L361.904 61.483C361.904 60.7425 361.978 60.0619 362.126 59.4412C362.274 58.8135 362.49 58.2669 362.772 57.8014C363.061 57.3359 363.413 56.9762 363.83 56.7223C364.246 56.4684 364.722 56.3414 365.258 56.3414C365.427 56.3414 365.6 56.3555 365.776 56.3838C365.953 56.4049 366.097 56.4367 366.21 56.479ZM373.838 64.8367C373.838 64.6181 373.774 64.4206 373.647 64.2443C373.52 64.0679 373.284 63.9057 372.938 63.7576C372.6 63.6025 372.11 63.4614 371.468 63.3344C370.89 63.2075 370.35 63.0488 369.849 62.8584C369.356 62.6609 368.925 62.4246 368.559 62.1495C368.199 61.8745 367.917 61.55 367.712 61.1762C367.508 60.7954 367.405 60.3616 367.405 59.875C367.405 59.3954 367.508 58.944 367.712 58.5208C367.924 58.0976 368.224 57.7238 368.611 57.3994C369.006 57.0679 369.486 56.8105 370.05 56.6271C370.622 56.4367 371.263 56.3414 371.976 56.3414C372.97 56.3414 373.824 56.5001 374.536 56.8175C375.255 57.1349 375.806 57.5722 376.186 58.1294C376.574 58.6795 376.768 59.3072 376.768 60.0125H373.721C373.721 59.7163 373.658 59.4518 373.531 59.219C373.411 58.9792 373.221 58.7923 372.96 58.6583C372.706 58.5173 372.374 58.4467 371.965 58.4467C371.627 58.4467 371.334 58.5067 371.087 58.6266C370.84 58.7394 370.65 58.8946 370.516 59.0921C370.389 59.2825 370.325 59.4941 370.325 59.7269C370.325 59.9032 370.361 60.0619 370.431 60.2029C370.509 60.3369 370.632 60.4604 370.801 60.5732C370.971 60.6861 371.189 60.7919 371.457 60.8906C371.732 60.9823 372.071 61.0669 372.473 61.1445C373.298 61.3138 374.035 61.5359 374.684 61.811C375.333 62.079 375.848 62.4458 376.229 62.9113C376.61 63.3697 376.8 63.9727 376.8 64.7203C376.8 65.2282 376.687 65.6937 376.461 66.1168C376.236 66.54 375.911 66.9103 375.488 67.2277C375.065 67.538 374.557 67.7813 373.965 67.9577C373.379 68.1269 372.72 68.2116 371.986 68.2116C370.921 68.2116 370.019 68.0211 369.278 67.6403C368.544 67.2594 367.987 66.7763 367.606 66.1909C367.233 65.5984 367.046 64.9919 367.046 64.3712H369.934C369.948 64.7873 370.054 65.1224 370.251 65.3763C370.456 65.6302 370.713 65.8136 371.024 65.9264C371.341 66.0392 371.683 66.0957 372.05 66.0957C372.445 66.0957 372.773 66.0428 373.034 65.937C373.295 65.8241 373.492 65.676 373.626 65.4926C373.767 65.3022 373.838 65.0836 373.838 64.8367ZM378.292 62.3929V62.1707C378.292 61.3314 378.412 60.5591 378.651 59.8538C378.891 59.1415 379.24 58.5243 379.699 58.0024C380.157 57.4805 380.721 57.0749 381.391 56.7858C382.061 56.4896 382.83 56.3414 383.698 56.3414C384.565 56.3414 385.338 56.4896 386.015 56.7858C386.692 57.0749 387.26 57.4805 387.718 58.0024C388.183 58.5243 388.536 59.1415 388.776 59.8538C389.016 60.5591 389.136 61.3314 389.136 62.1707V62.3929C389.136 63.2251 389.016 63.9974 388.776 64.7098C388.536 65.4151 388.183 66.0322 387.718 66.5612C387.26 67.0831 386.695 67.4886 386.025 67.7778C385.355 68.067 384.586 68.2116 383.719 68.2116C382.851 68.2116 382.079 68.067 381.402 67.7778C380.732 67.4886 380.164 67.0831 379.699 66.5612C379.24 66.0322 378.891 65.4151 378.651 64.7098C378.412 63.9974 378.292 63.2251 378.292 62.3929ZM381.339 62.1707V62.3929C381.339 62.8725 381.381 63.3203 381.466 63.7365C381.55 64.1526 381.684 64.5193 381.868 64.8367C382.058 65.1471 382.305 65.3904 382.608 65.5667C382.911 65.743 383.282 65.8312 383.719 65.8312C384.142 65.8312 384.505 65.743 384.809 65.5667C385.112 65.3904 385.355 65.1471 385.539 64.8367C385.722 64.5193 385.856 64.1526 385.941 63.7365C386.032 63.3203 386.078 62.8725 386.078 62.3929V62.1707C386.078 61.7052 386.032 61.2679 385.941 60.8589C385.856 60.4427 385.718 60.076 385.528 59.7586C385.345 59.4342 385.101 59.1803 384.798 58.9969C384.495 58.8135 384.128 58.7218 383.698 58.7218C383.268 58.7218 382.901 58.8135 382.597 58.9969C382.301 59.1803 382.058 59.4342 381.868 59.7586C381.684 60.076 381.55 60.4427 381.466 60.8589C381.381 61.2679 381.339 61.7052 381.339 62.1707Z" fill="white"/>
    <path d="M455.741 66.339V68H447.584V66.339H455.741ZM447.997 52.5963V68H445.955V52.5963H447.997ZM454.662 59.219V60.88H447.584V59.219H454.662ZM455.635 52.5963V54.2679H447.584V52.5963H455.635ZM459.295 56.553L461.803 60.7213L464.342 56.553H466.637L462.892 62.2024L466.754 68H464.49L461.845 63.7047L459.2 68H456.926L460.776 62.2024L457.042 56.553H459.295ZM470.679 58.7535V72.401H468.711V56.553H470.51L470.679 58.7535ZM478.391 62.1813V62.4035C478.391 63.2357 478.292 64.008 478.095 64.7203C477.897 65.4256 477.608 66.0392 477.227 66.5612C476.854 67.0831 476.392 67.4886 475.842 67.7778C475.291 68.067 474.66 68.2116 473.948 68.2116C473.221 68.2116 472.58 68.0917 472.022 67.8519C471.465 67.6121 470.993 67.2629 470.605 66.8045C470.217 66.3461 469.906 65.7959 469.674 65.1541C469.448 64.5123 469.293 63.7894 469.208 62.9853V61.8004C469.293 60.9541 469.452 60.1959 469.684 59.5258C469.917 58.8558 470.224 58.2845 470.605 57.812C470.993 57.3324 471.462 56.9692 472.012 56.7223C472.562 56.4684 473.197 56.3414 473.916 56.3414C474.635 56.3414 475.274 56.4825 475.831 56.7646C476.388 57.0397 476.857 57.4346 477.238 57.9495C477.619 58.4644 477.905 59.0815 478.095 59.8009C478.292 60.5133 478.391 61.3067 478.391 62.1813ZM476.423 62.4035V62.1813C476.423 61.61 476.363 61.074 476.244 60.5732C476.124 60.0654 475.937 59.6211 475.683 59.2402C475.436 58.8523 475.119 58.549 474.731 58.3304C474.343 58.1047 473.881 57.9918 473.345 57.9918C472.851 57.9918 472.421 58.0765 472.054 58.2457C471.694 58.415 471.388 58.6442 471.134 58.9334C470.88 59.2155 470.672 59.54 470.51 59.9067C470.354 60.2664 470.238 60.6402 470.16 61.0281V63.7682C470.301 64.2619 470.499 64.7274 470.753 65.1647C471.007 65.5949 471.345 65.944 471.768 66.212C472.192 66.473 472.724 66.6035 473.366 66.6035C473.895 66.6035 474.35 66.4942 474.731 66.2755C475.119 66.0498 475.436 65.743 475.683 65.3551C475.937 64.9672 476.124 64.5229 476.244 64.0221C476.363 63.5143 476.423 62.9747 476.423 62.4035ZM483.014 51.75V68H481.047V51.75H483.014ZM485.638 62.4035V62.1601C485.638 61.3349 485.758 60.5697 485.998 59.8644C486.238 59.152 486.583 58.5349 487.035 58.013C487.486 57.484 488.033 57.0749 488.674 56.7858C489.316 56.4896 490.036 56.3414 490.833 56.3414C491.637 56.3414 492.36 56.4896 493.001 56.7858C493.65 57.0749 494.2 57.484 494.652 58.013C495.11 58.5349 495.459 59.152 495.699 59.8644C495.939 60.5697 496.059 61.3349 496.059 62.1601V62.4035C496.059 63.2286 495.939 63.9939 495.699 64.6992C495.459 65.4045 495.11 66.0216 494.652 66.5506C494.2 67.0725 493.654 67.4816 493.012 67.7778C492.377 68.067 491.658 68.2116 490.854 68.2116C490.05 68.2116 489.327 68.067 488.685 67.7778C488.043 67.4816 487.493 67.0725 487.035 66.5506C486.583 66.0216 486.238 65.4045 485.998 64.6992C485.758 63.9939 485.638 63.2286 485.638 62.4035ZM487.595 62.1601V62.4035C487.595 62.9747 487.662 63.5143 487.796 64.0221C487.93 64.5229 488.131 64.9672 488.399 65.3551C488.674 65.743 489.016 66.0498 489.426 66.2755C489.835 66.4942 490.311 66.6035 490.854 66.6035C491.39 66.6035 491.859 66.4942 492.261 66.2755C492.67 66.0498 493.008 65.743 493.276 65.3551C493.544 64.9672 493.745 64.5229 493.879 64.0221C494.021 63.5143 494.091 62.9747 494.091 62.4035V62.1601C494.091 61.5959 494.021 61.0634 493.879 60.5626C493.745 60.0548 493.541 59.607 493.266 59.219C492.998 58.8241 492.659 58.5137 492.25 58.2881C491.848 58.0624 491.376 57.9495 490.833 57.9495C490.297 57.9495 489.824 58.0624 489.415 58.2881C489.013 58.5137 488.674 58.8241 488.399 59.219C488.131 59.607 487.93 60.0548 487.796 60.5626C487.662 61.0634 487.595 61.5959 487.595 62.1601ZM500.47 58.3515V68H498.513V56.553H500.418L500.47 58.3515ZM504.046 56.4896L504.036 58.3092C503.874 58.2739 503.718 58.2528 503.57 58.2457C503.429 58.2316 503.267 58.2246 503.084 58.2246C502.632 58.2246 502.234 58.2951 501.888 58.4362C501.543 58.5772 501.25 58.7747 501.01 59.0286C500.77 59.2825 500.58 59.5858 500.439 59.9384C500.305 60.284 500.217 60.6649 500.174 61.081L499.624 61.3984C499.624 60.7072 499.691 60.0583 499.825 59.4518C499.966 58.8452 500.181 58.3092 500.47 57.8437C500.76 57.3712 501.126 57.0044 501.571 56.7435C502.022 56.4754 502.558 56.3414 503.179 56.3414C503.32 56.3414 503.482 56.3591 503.665 56.3943C503.849 56.4225 503.976 56.4543 504.046 56.4896ZM512.182 66.0428V60.15C512.182 59.6986 512.09 59.3072 511.907 58.9757C511.73 58.6372 511.462 58.3762 511.103 58.1928C510.743 58.0095 510.299 57.9178 509.77 57.9178C509.276 57.9178 508.842 58.0024 508.469 58.1717C508.102 58.341 507.813 58.5631 507.601 58.8382C507.396 59.1133 507.294 59.4095 507.294 59.7269H505.337C505.337 59.3178 505.443 58.9122 505.654 58.5102C505.866 58.1082 506.169 57.745 506.564 57.4205C506.966 57.0891 507.446 56.8281 508.003 56.6377C508.567 56.4402 509.195 56.3414 509.886 56.3414C510.718 56.3414 511.452 56.4825 512.087 56.7646C512.728 57.0467 513.229 57.4734 513.589 58.0447C513.956 58.609 514.139 59.3178 514.139 60.1712V65.5032C514.139 65.8841 514.171 66.2896 514.234 66.7199C514.305 67.1501 514.407 67.5204 514.541 67.8307V68H512.499C512.401 67.7743 512.323 67.4745 512.267 67.1007C512.21 66.7199 512.182 66.3672 512.182 66.0428ZM512.52 61.0599L512.542 62.4352H510.563C510.006 62.4352 509.509 62.481 509.072 62.5727C508.634 62.6574 508.267 62.7878 507.971 62.9642C507.675 63.1405 507.449 63.3627 507.294 63.6307C507.139 63.8916 507.061 64.1984 507.061 64.5511C507.061 64.9108 507.143 65.2387 507.305 65.535C507.467 65.8312 507.71 66.0675 508.035 66.2438C508.366 66.4131 508.772 66.4977 509.251 66.4977C509.851 66.4977 510.38 66.3707 510.838 66.1168C511.297 65.8629 511.66 65.5526 511.928 65.1858C512.203 64.8191 512.351 64.4629 512.372 64.1173L513.208 65.0589C513.159 65.3551 513.025 65.6831 512.806 66.0428C512.587 66.4025 512.295 66.7481 511.928 67.0796C511.568 67.404 511.138 67.6755 510.637 67.8942C510.144 68.1058 509.586 68.2116 508.966 68.2116C508.19 68.2116 507.509 68.0599 506.924 67.7566C506.346 67.4534 505.894 67.0478 505.57 66.54C505.252 66.0251 505.094 65.4503 505.094 64.8156C505.094 64.202 505.214 63.6624 505.453 63.1969C505.693 62.7244 506.039 62.3329 506.49 62.0226C506.942 61.7052 507.485 61.4654 508.119 61.3032C508.754 61.141 509.463 61.0599 510.246 61.0599H512.52ZM521.799 66.6035C522.264 66.6035 522.694 66.5083 523.089 66.3178C523.484 66.1274 523.809 65.8665 524.063 65.535C524.316 65.1964 524.461 64.812 524.496 64.3818H526.358C526.323 65.0589 526.094 65.6901 525.671 66.2755C525.255 66.8539 524.708 67.3229 524.031 67.6826C523.354 68.0352 522.61 68.2116 521.799 68.2116C520.938 68.2116 520.187 68.0599 519.545 67.7566C518.91 67.4534 518.381 67.0372 517.958 66.5083C517.542 65.9793 517.228 65.3727 517.017 64.6886C516.812 63.9974 516.71 63.2674 516.71 62.4987V62.0543C516.71 61.2856 516.812 60.5591 517.017 59.875C517.228 59.1838 517.542 58.5737 517.958 58.0447C518.381 57.5158 518.91 57.0996 519.545 56.7964C520.187 56.4931 520.938 56.3414 521.799 56.3414C522.694 56.3414 523.477 56.5248 524.147 56.8916C524.817 57.2513 525.343 57.745 525.724 58.3727C526.111 58.9934 526.323 59.6986 526.358 60.4886H524.496C524.461 60.016 524.327 59.5893 524.094 59.2085C523.869 58.8276 523.558 58.5243 523.163 58.2986C522.775 58.0659 522.321 57.9495 521.799 57.9495C521.199 57.9495 520.695 58.0694 520.286 58.3092C519.884 58.542 519.563 58.8593 519.323 59.2614C519.09 59.6563 518.921 60.0971 518.815 60.5838C518.716 61.0634 518.667 61.5536 518.667 62.0543V62.4987C518.667 62.9994 518.716 63.4931 518.815 63.9798C518.914 64.4664 519.08 64.9073 519.312 65.3022C519.552 65.6972 519.873 66.0146 520.275 66.2544C520.684 66.4871 521.192 66.6035 521.799 66.6035ZM520.719 68.1058H522.127L522 68.6665C522.409 68.737 522.779 68.9063 523.11 69.1743C523.449 69.4423 523.618 69.8831 523.618 70.4967C523.618 70.8282 523.548 71.128 523.407 71.396C523.273 71.671 523.072 71.9038 522.804 72.0942C522.536 72.2917 522.201 72.4433 521.799 72.5491C521.404 72.6549 520.942 72.7078 520.413 72.7078L520.339 71.5758C520.663 71.5758 520.956 71.5406 521.217 71.47C521.485 71.3995 521.696 71.2866 521.851 71.1315C522.014 70.9763 522.095 70.7753 522.095 70.5285C522.095 70.2957 522.035 70.1123 521.915 69.9783C521.795 69.8443 521.608 69.742 521.354 69.6715C521.107 69.608 520.786 69.5622 520.392 69.534L520.719 68.1058ZM535.309 66.0428V60.15C535.309 59.6986 535.217 59.3072 535.033 58.9757C534.857 58.6372 534.589 58.3762 534.229 58.1928C533.87 58.0095 533.425 57.9178 532.896 57.9178C532.403 57.9178 531.969 58.0024 531.595 58.1717C531.228 58.341 530.939 58.5631 530.728 58.8382C530.523 59.1133 530.421 59.4095 530.421 59.7269H528.464C528.464 59.3178 528.569 58.9122 528.781 58.5102C528.993 58.1082 529.296 57.745 529.691 57.4205C530.093 57.0891 530.572 56.8281 531.13 56.6377C531.694 56.4402 532.322 56.3414 533.013 56.3414C533.845 56.3414 534.579 56.4825 535.213 56.7646C535.855 57.0467 536.356 57.4734 536.716 58.0447C537.082 58.609 537.266 59.3178 537.266 60.1712V65.5032C537.266 65.8841 537.297 66.2896 537.361 66.7199C537.431 67.1501 537.534 67.5204 537.668 67.8307V68H535.626C535.527 67.7743 535.45 67.4745 535.393 67.1007C535.337 66.7199 535.309 66.3672 535.309 66.0428ZM535.647 61.0599L535.668 62.4352H533.69C533.133 62.4352 532.635 62.481 532.198 62.5727C531.761 62.6574 531.394 62.7878 531.098 62.9642C530.802 63.1405 530.576 63.3627 530.421 63.6307C530.266 63.8916 530.188 64.1984 530.188 64.5511C530.188 64.9108 530.269 65.2387 530.431 65.535C530.594 65.8312 530.837 66.0675 531.161 66.2438C531.493 66.4131 531.898 66.4977 532.378 66.4977C532.978 66.4977 533.506 66.3707 533.965 66.1168C534.423 65.8629 534.787 65.5526 535.055 65.1858C535.33 64.8191 535.478 64.4629 535.499 64.1173L536.335 65.0589C536.285 65.3551 536.151 65.6831 535.933 66.0428C535.714 66.4025 535.421 66.7481 535.055 67.0796C534.695 67.404 534.265 67.6755 533.764 67.8942C533.27 68.1058 532.713 68.2116 532.092 68.2116C531.317 68.2116 530.636 68.0599 530.051 67.7566C529.472 67.4534 529.021 67.0478 528.696 66.54C528.379 66.0251 528.22 65.4503 528.22 64.8156C528.22 64.202 528.34 63.6624 528.58 63.1969C528.82 62.7244 529.165 62.3329 529.617 62.0226C530.068 61.7052 530.611 61.4654 531.246 61.3032C531.881 61.141 532.59 61.0599 533.372 61.0599H535.647ZM535.658 51.9616L536.98 52.0779C536.98 52.5928 536.878 53.0442 536.673 53.4321C536.469 53.82 536.194 54.1198 535.848 54.3313C535.51 54.5429 535.125 54.6487 534.695 54.6487C534.335 54.6487 534.039 54.5994 533.806 54.5006C533.573 54.3948 533.365 54.2785 533.182 54.1515C532.999 54.0175 532.805 53.9011 532.6 53.8024C532.403 53.6966 532.156 53.6437 531.86 53.6437C531.563 53.6437 531.313 53.7565 531.108 53.9822C530.911 54.2079 530.812 54.4865 530.812 54.818L529.49 54.7545C529.49 54.2397 529.589 53.7883 529.786 53.4004C529.991 53.0054 530.266 52.6986 530.611 52.4799C530.957 52.2543 531.341 52.1414 531.764 52.1414C532.068 52.1414 532.332 52.1943 532.558 52.3001C532.791 52.3988 533.009 52.5152 533.214 52.6492C533.418 52.7762 533.63 52.8925 533.849 52.9983C534.067 53.0971 534.318 53.1465 534.6 53.1465C534.896 53.1465 535.146 53.0336 535.351 52.8079C535.555 52.5752 535.658 52.293 535.658 51.9616ZM539.826 62.4035V62.1601C539.826 61.3349 539.946 60.5697 540.186 59.8644C540.425 59.152 540.771 58.5349 541.222 58.013C541.674 57.484 542.22 57.0749 542.862 56.7858C543.504 56.4896 544.223 56.3414 545.02 56.3414C545.824 56.3414 546.547 56.4896 547.189 56.7858C547.838 57.0749 548.388 57.484 548.84 58.013C549.298 58.5349 549.647 59.152 549.887 59.8644C550.127 60.5697 550.247 61.3349 550.247 62.1601V62.4035C550.247 63.2286 550.127 63.9939 549.887 64.6992C549.647 65.4045 549.298 66.0216 548.84 66.5506C548.388 67.0725 547.842 67.4816 547.2 67.7778C546.565 68.067 545.846 68.2116 545.042 68.2116C544.238 68.2116 543.515 68.067 542.873 67.7778C542.231 67.4816 541.681 67.0725 541.222 66.5506C540.771 66.0216 540.425 65.4045 540.186 64.6992C539.946 63.9939 539.826 63.2286 539.826 62.4035ZM541.783 62.1601V62.4035C541.783 62.9747 541.85 63.5143 541.984 64.0221C542.118 64.5229 542.319 64.9672 542.587 65.3551C542.862 65.743 543.204 66.0498 543.613 66.2755C544.022 66.4942 544.499 66.6035 545.042 66.6035C545.578 66.6035 546.047 66.4942 546.449 66.2755C546.858 66.0498 547.196 65.743 547.464 65.3551C547.732 64.9672 547.933 64.5229 548.067 64.0221C548.208 63.5143 548.279 62.9747 548.279 62.4035V62.1601C548.279 61.5959 548.208 61.0634 548.067 60.5626C547.933 60.0548 547.729 59.607 547.454 59.219C547.186 58.8241 546.847 58.5137 546.438 58.2881C546.036 58.0624 545.564 57.9495 545.02 57.9495C544.484 57.9495 544.012 58.0624 543.603 58.2881C543.201 58.5137 542.862 58.8241 542.587 59.219C542.319 59.607 542.118 60.0548 541.984 60.5626C541.85 61.0634 541.783 61.5959 541.783 62.1601Z" fill="#8D8D99"/>
    <path d="M103.542 40.0098C98.1727 40.1747 91.3604 42.4718 84.1375 48.7379C69.3803 61.4919 72.2191 71.6427 72.2191 71.6427C72.2191 71.6427 70.6859 62.7633 84.6765 50.655C91.9593 44.3587 100.979 42.2902 106.537 46.9721C111.52 51.1696 110.777 58.2731 102.344 65.5381C99.0864 68.1212 95.6007 65.8307 99.0504 62.7633C99.4347 62.4396 99.7717 62.1194 100.069 61.8047C103.276 58.6232 105.746 53.7222 101.925 50.5036C97.3256 46.4675 89.5038 51.1696 86.054 54.237C75.1299 63.7622 74.8903 73.9231 81.0232 79.4122C85.2395 82.964 96.7506 84.3867 109.591 73.4085C124.349 60.6544 121.51 50.5036 121.51 50.5036C121.51 50.5036 123.043 59.3831 109.052 71.4914C101.77 77.7877 92.7499 79.9066 87.192 75.2248C82.209 71.0272 82.9517 63.9237 91.3844 56.6587C94.8341 53.9142 98.3078 56.1643 94.858 59.2317C94.4738 59.5554 94.1368 59.8756 93.8399 60.1903C90.6323 63.3718 88.1624 68.2728 91.9833 71.4914C96.5829 75.5275 104.213 70.664 107.854 67.758C118.97 58.2328 119.018 48.0719 112.885 42.5828C111.041 41.0289 107.719 39.8815 103.542 40.0098Z" fill="white"/>
  </g>
  <defs>
    <clipPath id="clip0_30_1216">
      <rect width="489" height="42" fill="white" transform="translate(72 40)"/>
    </clipPath>
  </defs>
</svg>
